<?xml version="1.0" standalone="no"?>
<!DOCTYPE svg PUBLIC "-//W3C//DTD SVG 20010904//EN"
 "http://www.w3.org/TR/2001/REC-SVG-20010904/DTD/svg10.dtd">
<svg version="1.0" xmlns="http://www.w3.org/2000/svg"
 width="512.000000pt" height="512.000000pt" viewBox="0 0 512.000000 512.000000"
 preserveAspectRatio="xMidYMid meet">
<metadata>
Created by potrace 1.11, written by Peter Selinger 2001-2013
</metadata>
<g transform="translate(0.000000,512.000000) scale(0.100000,-0.100000)"
fill="#000000" stroke="none">
<path d="M2245 4887 c-32 -8 -72 -42 -220 -186 -205 -200 -345 -316 -526 -437
-343 -227 -665 -347 -1007 -374 -167 -13 -195 -22 -252 -79 -39 -39 -50 -59
-61 -104 -25 -116 2 -170 196 -382 272 -297 590 -511 880 -592 136 -37 340
-44 469 -14 52 12 115 33 140 45 l46 23 0 -48 c0 -49 0 -49 -34 -49 -150 0
-447 -111 -537 -201 -114 -114 -31 -310 131 -312 38 -1 68 9 142 45 137 68
194 82 323 82 88 0 125 -4 183 -23 113 -36 194 -14 244 67 19 30 23 51 23 110
-1 43 3 72 10 72 5 0 35 -7 65 -15 30 -8 105 -20 167 -26 l112 -12 -58 -27
c-32 -15 -67 -40 -79 -54 -73 -93 -43 -235 60 -285 58 -28 103 -27 191 5 99
35 157 45 258 45 93 0 158 -19 254 -72 90 -50 170 -47 235 7 36 31 50 54 64
112 l11 43 95 -79 c190 -158 287 -321 309 -515 11 -94 -2 -323 -23 -422 -77
-361 -277 -530 -678 -573 -160 -17 -311 12 -434 83 -27 15 -83 62 -124 104
-187 189 -232 430 -121 649 36 72 154 185 235 225 52 26 64 29 144 25 75 -2
97 -8 154 -36 122 -60 218 -193 218 -301 -1 -106 -94 -230 -186 -247 -75 -14
-180 43 -250 136 -23 30 -55 60 -70 67 -108 46 -222 -34 -210 -147 7 -67 42
-153 87 -212 49 -66 147 -142 218 -168 147 -56 332 -42 481 36 89 47 150 102
206 185 69 105 96 191 102 326 4 98 1 122 -22 202 -71 248 -261 430 -521 497
-100 26 -283 25 -390 -3 -293 -77 -514 -291 -609 -591 -55 -173 -52 -326 10
-512 78 -235 207 -413 388 -539 356 -245 806 -302 1220 -154 348 125 629 421
765 807 187 529 181 1203 -14 1765 -148 423 -426 828 -770 1118 -207 175 -505
353 -725 433 -207 76 -438 117 -602 106 l-98 -6 0 67 c-1 130 -42 261 -93 293
-34 21 -79 27 -122 17z"/>
</g>
</svg>
